<mxfile host="app.diagrams.net" modified="2024-02-14T11:34:48.829Z" agent="Mozilla/5.0 (Windows NT 10.0; Win64; x64) AppleWebKit/537.36 (KHTML, like Gecko) Chrome/121.0.0.0 Safari/537.36" etag="s5imPFIjsan5DRGm75xp" version="23.1.4" type="google">
  <diagram name="PÃ¡gina-1" id="nRooKCIGqbzD4lIbR2Vv">
    <mxGraphModel grid="1" page="1" gridSize="10" guides="1" tooltips="1" connect="0" arrows="1" fold="1" pageScale="1" pageWidth="827" pageHeight="1169" math="0" shadow="0">
      <root>
        <mxCell id="0" />
        <mxCell id="1" parent="0" />
        <mxCell id="QpCjkG6h7ZB04saemi_2-1" value="&lt;font style=&quot;font-size: 15px;&quot;&gt;LOGAR&lt;/font&gt;" style="shape=hexagon;perimeter=hexagonPerimeter2;whiteSpace=wrap;html=1;fixedSize=1;labelBackgroundColor=none;" vertex="1" parent="1">
          <mxGeometry x="339" y="-90" width="120" height="80" as="geometry" />
        </mxCell>
        <mxCell id="QpCjkG6h7ZB04saemi_2-19" value="ROLE_USUARIOS" style="rounded=1;whiteSpace=wrap;html=1;fontSize=14;labelBackgroundColor=none;fillColor=#d5e8d4;strokeColor=#82b366;" vertex="1" parent="1">
          <mxGeometry x="80" y="110" width="170" height="60" as="geometry" />
        </mxCell>
        <mxCell id="QpCjkG6h7ZB04saemi_2-135" style="edgeStyle=orthogonalEdgeStyle;rounded=0;orthogonalLoop=1;jettySize=auto;html=1;" edge="1" parent="1" source="QpCjkG6h7ZB04saemi_2-20" target="QpCjkG6h7ZB04saemi_2-132">
          <mxGeometry relative="1" as="geometry" />
        </mxCell>
        <mxCell id="QpCjkG6h7ZB04saemi_2-20" value="ROLE_ADMIN" style="rounded=1;whiteSpace=wrap;html=1;fontSize=14;labelBackgroundColor=none;fillColor=#dae8fc;strokeColor=#6c8ebf;" vertex="1" parent="1">
          <mxGeometry x="590" y="110" width="180" height="60" as="geometry" />
        </mxCell>
        <mxCell id="QpCjkG6h7ZB04saemi_2-25" style="edgeStyle=orthogonalEdgeStyle;rounded=0;orthogonalLoop=1;jettySize=auto;html=1;entryX=0.475;entryY=0.033;entryDx=0;entryDy=0;entryPerimeter=0;labelBackgroundColor=none;fontColor=default;" edge="1" parent="1" source="QpCjkG6h7ZB04saemi_2-1" target="QpCjkG6h7ZB04saemi_2-20">
          <mxGeometry relative="1" as="geometry" />
        </mxCell>
        <mxCell id="QpCjkG6h7ZB04saemi_2-37" value="USUARIO" style="shape=table;startSize=30;container=1;collapsible=0;childLayout=tableLayout;fixedRows=1;rowLines=0;fontStyle=0;fontSize=17;labelBackgroundColor=none;fillColor=#d5e8d4;strokeColor=#82b366;" vertex="1" parent="1">
          <mxGeometry x="30" y="320" width="350" height="492" as="geometry" />
        </mxCell>
        <mxCell id="QpCjkG6h7ZB04saemi_2-38" value="" style="shape=tableRow;horizontal=0;startSize=0;swimlaneHead=0;swimlaneBody=0;top=0;left=0;bottom=0;right=0;collapsible=0;dropTarget=0;fillColor=none;points=[[0,0.5],[1,0.5]];portConstraint=eastwest;fontSize=16;labelBackgroundColor=none;" vertex="1" parent="QpCjkG6h7ZB04saemi_2-37">
          <mxGeometry y="30" width="350" height="30" as="geometry" />
        </mxCell>
        <mxCell id="QpCjkG6h7ZB04saemi_2-39" value="POST" style="shape=partialRectangle;html=1;whiteSpace=wrap;connectable=0;fillColor=none;top=0;left=0;bottom=0;right=0;overflow=hidden;pointerEvents=1;fontSize=16;labelBackgroundColor=none;" vertex="1" parent="QpCjkG6h7ZB04saemi_2-38">
          <mxGeometry width="93" height="30" as="geometry">
            <mxRectangle width="93" height="30" as="alternateBounds" />
          </mxGeometry>
        </mxCell>
        <mxCell id="QpCjkG6h7ZB04saemi_2-40" value="/usuario&amp;nbsp;" style="shape=partialRectangle;html=1;whiteSpace=wrap;connectable=0;fillColor=none;top=0;left=0;bottom=0;right=0;align=left;spacingLeft=6;overflow=hidden;fontSize=17;labelBackgroundColor=none;fontStyle=0;verticalAlign=middle;" vertex="1" parent="QpCjkG6h7ZB04saemi_2-38">
          <mxGeometry x="93" width="257" height="30" as="geometry">
            <mxRectangle width="257" height="30" as="alternateBounds" />
          </mxGeometry>
        </mxCell>
        <mxCell id="QpCjkG6h7ZB04saemi_2-41" value="" style="shape=tableRow;horizontal=0;startSize=0;swimlaneHead=0;swimlaneBody=0;top=0;left=0;bottom=0;right=0;collapsible=0;dropTarget=0;fillColor=none;points=[[0,0.5],[1,0.5]];portConstraint=eastwest;fontSize=16;labelBackgroundColor=none;" vertex="1" parent="QpCjkG6h7ZB04saemi_2-37">
          <mxGeometry y="60" width="350" height="30" as="geometry" />
        </mxCell>
        <mxCell id="QpCjkG6h7ZB04saemi_2-42" value="PUT" style="shape=partialRectangle;html=1;whiteSpace=wrap;connectable=0;fillColor=none;top=0;left=0;bottom=0;right=0;overflow=hidden;fontSize=16;labelBackgroundColor=none;" vertex="1" parent="QpCjkG6h7ZB04saemi_2-41">
          <mxGeometry width="93" height="30" as="geometry">
            <mxRectangle width="93" height="30" as="alternateBounds" />
          </mxGeometry>
        </mxCell>
        <mxCell id="QpCjkG6h7ZB04saemi_2-43" value="/usuario/alterarsenha" style="shape=partialRectangle;html=1;whiteSpace=wrap;connectable=0;fillColor=none;top=0;left=0;bottom=0;right=0;align=left;spacingLeft=6;overflow=hidden;fontSize=17;labelBackgroundColor=none;fontStyle=0;verticalAlign=middle;" vertex="1" parent="QpCjkG6h7ZB04saemi_2-41">
          <mxGeometry x="93" width="257" height="30" as="geometry">
            <mxRectangle width="257" height="30" as="alternateBounds" />
          </mxGeometry>
        </mxCell>
        <mxCell id="QpCjkG6h7ZB04saemi_2-44" value="" style="shape=tableRow;horizontal=0;startSize=0;swimlaneHead=0;swimlaneBody=0;top=0;left=0;bottom=0;right=0;collapsible=0;dropTarget=0;fillColor=none;points=[[0,0.5],[1,0.5]];portConstraint=eastwest;fontSize=16;labelBackgroundColor=none;" vertex="1" parent="QpCjkG6h7ZB04saemi_2-37">
          <mxGeometry y="90" width="350" height="25" as="geometry" />
        </mxCell>
        <mxCell id="QpCjkG6h7ZB04saemi_2-45" value="DELETE" style="shape=partialRectangle;html=1;whiteSpace=wrap;connectable=0;fillColor=none;top=0;left=0;bottom=0;right=0;overflow=hidden;fontSize=16;labelBackgroundColor=none;" vertex="1" parent="QpCjkG6h7ZB04saemi_2-44">
          <mxGeometry width="93" height="25" as="geometry">
            <mxRectangle width="93" height="25" as="alternateBounds" />
          </mxGeometry>
        </mxCell>
        <mxCell id="QpCjkG6h7ZB04saemi_2-46" value="/usuario/deletar-conta" style="shape=partialRectangle;html=1;whiteSpace=wrap;connectable=0;fillColor=none;top=0;left=0;bottom=0;right=0;align=left;spacingLeft=6;overflow=hidden;fontSize=17;labelBackgroundColor=none;fontStyle=0;verticalAlign=middle;" vertex="1" parent="QpCjkG6h7ZB04saemi_2-44">
          <mxGeometry x="93" width="257" height="25" as="geometry">
            <mxRectangle width="257" height="25" as="alternateBounds" />
          </mxGeometry>
        </mxCell>
        <mxCell id="QpCjkG6h7ZB04saemi_2-72" value="" style="shape=tableRow;horizontal=0;startSize=0;swimlaneHead=0;swimlaneBody=0;top=0;left=0;bottom=0;right=0;collapsible=0;dropTarget=0;fillColor=none;points=[[0,0.5],[1,0.5]];portConstraint=eastwest;fontSize=16;labelBackgroundColor=none;" vertex="1" parent="QpCjkG6h7ZB04saemi_2-37">
          <mxGeometry y="115" width="350" height="25" as="geometry" />
        </mxCell>
        <mxCell id="QpCjkG6h7ZB04saemi_2-73" value="GET" style="shape=partialRectangle;html=1;whiteSpace=wrap;connectable=0;fillColor=none;top=0;left=0;bottom=0;right=0;overflow=hidden;fontSize=16;labelBackgroundColor=none;" vertex="1" parent="QpCjkG6h7ZB04saemi_2-72">
          <mxGeometry width="93" height="25" as="geometry">
            <mxRectangle width="93" height="25" as="alternateBounds" />
          </mxGeometry>
        </mxCell>
        <mxCell id="QpCjkG6h7ZB04saemi_2-74" value="/usuario/{idUsuario}" style="shape=partialRectangle;html=1;whiteSpace=wrap;connectable=0;fillColor=none;top=0;left=0;bottom=0;right=0;align=left;spacingLeft=6;overflow=hidden;fontSize=17;labelBackgroundColor=none;fontStyle=0;verticalAlign=middle;" vertex="1" parent="QpCjkG6h7ZB04saemi_2-72">
          <mxGeometry x="93" width="257" height="25" as="geometry">
            <mxRectangle width="257" height="25" as="alternateBounds" />
          </mxGeometry>
        </mxCell>
        <mxCell id="QpCjkG6h7ZB04saemi_2-75" value="" style="shape=tableRow;horizontal=0;startSize=0;swimlaneHead=0;swimlaneBody=0;top=0;left=0;bottom=0;right=0;collapsible=0;dropTarget=0;fillColor=none;points=[[0,0.5],[1,0.5]];portConstraint=eastwest;fontSize=16;labelBackgroundColor=none;" vertex="1" parent="QpCjkG6h7ZB04saemi_2-37">
          <mxGeometry y="140" width="350" height="25" as="geometry" />
        </mxCell>
        <mxCell id="QpCjkG6h7ZB04saemi_2-76" value="GET" style="shape=partialRectangle;html=1;whiteSpace=wrap;connectable=0;fillColor=none;top=0;left=0;bottom=0;right=0;overflow=hidden;fontSize=16;labelBackgroundColor=none;" vertex="1" parent="QpCjkG6h7ZB04saemi_2-75">
          <mxGeometry width="93" height="25" as="geometry">
            <mxRectangle width="93" height="25" as="alternateBounds" />
          </mxGeometry>
        </mxCell>
        <mxCell id="QpCjkG6h7ZB04saemi_2-77" value="/usuario/logado" style="shape=partialRectangle;html=1;whiteSpace=wrap;connectable=0;fillColor=none;top=0;left=0;bottom=0;right=0;align=left;spacingLeft=6;overflow=hidden;fontSize=17;labelBackgroundColor=none;fontStyle=0;verticalAlign=middle;" vertex="1" parent="QpCjkG6h7ZB04saemi_2-75">
          <mxGeometry x="93" width="257" height="25" as="geometry">
            <mxRectangle width="257" height="25" as="alternateBounds" />
          </mxGeometry>
        </mxCell>
        <mxCell id="QpCjkG6h7ZB04saemi_2-78" value="" style="shape=tableRow;horizontal=0;startSize=0;swimlaneHead=0;swimlaneBody=0;top=0;left=0;bottom=0;right=0;collapsible=0;dropTarget=0;fillColor=none;points=[[0,0.5],[1,0.5]];portConstraint=eastwest;fontSize=16;labelBackgroundColor=none;" vertex="1" parent="QpCjkG6h7ZB04saemi_2-37">
          <mxGeometry y="165" width="350" height="25" as="geometry" />
        </mxCell>
        <mxCell id="QpCjkG6h7ZB04saemi_2-79" value="GET" style="shape=partialRectangle;html=1;whiteSpace=wrap;connectable=0;fillColor=none;top=0;left=0;bottom=0;right=0;overflow=hidden;fontSize=16;labelBackgroundColor=none;" vertex="1" parent="QpCjkG6h7ZB04saemi_2-78">
          <mxGeometry width="93" height="25" as="geometry">
            <mxRectangle width="93" height="25" as="alternateBounds" />
          </mxGeometry>
        </mxCell>
        <mxCell id="QpCjkG6h7ZB04saemi_2-80" value="/feed" style="shape=partialRectangle;html=1;whiteSpace=wrap;connectable=0;fillColor=none;top=0;left=0;bottom=0;right=0;align=left;spacingLeft=6;overflow=hidden;fontSize=17;labelBackgroundColor=none;fontStyle=0;verticalAlign=middle;" vertex="1" parent="QpCjkG6h7ZB04saemi_2-78">
          <mxGeometry x="93" width="257" height="25" as="geometry">
            <mxRectangle width="257" height="25" as="alternateBounds" />
          </mxGeometry>
        </mxCell>
        <mxCell id="QpCjkG6h7ZB04saemi_2-81" value="" style="shape=tableRow;horizontal=0;startSize=0;swimlaneHead=0;swimlaneBody=0;top=0;left=0;bottom=0;right=0;collapsible=0;dropTarget=0;fillColor=none;points=[[0,0.5],[1,0.5]];portConstraint=eastwest;fontSize=16;labelBackgroundColor=none;" vertex="1" parent="QpCjkG6h7ZB04saemi_2-37">
          <mxGeometry y="190" width="350" height="25" as="geometry" />
        </mxCell>
        <mxCell id="QpCjkG6h7ZB04saemi_2-82" value="GET" style="shape=partialRectangle;html=1;whiteSpace=wrap;connectable=0;fillColor=none;top=0;left=0;bottom=0;right=0;overflow=hidden;fontSize=16;labelBackgroundColor=none;" vertex="1" parent="QpCjkG6h7ZB04saemi_2-81">
          <mxGeometry width="93" height="25" as="geometry">
            <mxRectangle width="93" height="25" as="alternateBounds" />
          </mxGeometry>
        </mxCell>
        <mxCell id="QpCjkG6h7ZB04saemi_2-83" value="/feed/quantidade/estado" style="shape=partialRectangle;html=1;whiteSpace=wrap;connectable=0;fillColor=none;top=0;left=0;bottom=0;right=0;align=left;spacingLeft=6;overflow=hidden;fontSize=17;labelBackgroundColor=none;fontStyle=0;verticalAlign=middle;" vertex="1" parent="QpCjkG6h7ZB04saemi_2-81">
          <mxGeometry x="93" width="257" height="25" as="geometry">
            <mxRectangle width="257" height="25" as="alternateBounds" />
          </mxGeometry>
        </mxCell>
        <mxCell id="QpCjkG6h7ZB04saemi_2-84" value="" style="shape=tableRow;horizontal=0;startSize=0;swimlaneHead=0;swimlaneBody=0;top=0;left=0;bottom=0;right=0;collapsible=0;dropTarget=0;fillColor=none;points=[[0,0.5],[1,0.5]];portConstraint=eastwest;fontSize=16;labelBackgroundColor=none;" vertex="1" parent="QpCjkG6h7ZB04saemi_2-37">
          <mxGeometry y="215" width="350" height="25" as="geometry" />
        </mxCell>
        <mxCell id="QpCjkG6h7ZB04saemi_2-85" value="GET" style="shape=partialRectangle;html=1;whiteSpace=wrap;connectable=0;fillColor=none;top=0;left=0;bottom=0;right=0;overflow=hidden;fontSize=16;labelBackgroundColor=none;" vertex="1" parent="QpCjkG6h7ZB04saemi_2-84">
          <mxGeometry width="93" height="25" as="geometry">
            <mxRectangle width="93" height="25" as="alternateBounds" />
          </mxGeometry>
        </mxCell>
        <mxCell id="QpCjkG6h7ZB04saemi_2-86" value="/terreno/{idTerreno}" style="shape=partialRectangle;html=1;whiteSpace=wrap;connectable=0;fillColor=none;top=0;left=0;bottom=0;right=0;align=left;spacingLeft=6;overflow=hidden;fontSize=17;labelBackgroundColor=none;fontStyle=0;verticalAlign=middle;" vertex="1" parent="QpCjkG6h7ZB04saemi_2-84">
          <mxGeometry x="93" width="257" height="25" as="geometry">
            <mxRectangle width="257" height="25" as="alternateBounds" />
          </mxGeometry>
        </mxCell>
        <mxCell id="QpCjkG6h7ZB04saemi_2-87" value="" style="shape=tableRow;horizontal=0;startSize=0;swimlaneHead=0;swimlaneBody=0;top=0;left=0;bottom=0;right=0;collapsible=0;dropTarget=0;fillColor=none;points=[[0,0.5],[1,0.5]];portConstraint=eastwest;fontSize=16;labelBackgroundColor=none;" vertex="1" parent="QpCjkG6h7ZB04saemi_2-37">
          <mxGeometry y="240" width="350" height="25" as="geometry" />
        </mxCell>
        <mxCell id="QpCjkG6h7ZB04saemi_2-88" value="POST" style="shape=partialRectangle;html=1;whiteSpace=wrap;connectable=0;fillColor=none;top=0;left=0;bottom=0;right=0;overflow=hidden;fontSize=16;labelBackgroundColor=none;" vertex="1" parent="QpCjkG6h7ZB04saemi_2-87">
          <mxGeometry width="93" height="25" as="geometry">
            <mxRectangle width="93" height="25" as="alternateBounds" />
          </mxGeometry>
        </mxCell>
        <mxCell id="QpCjkG6h7ZB04saemi_2-89" value="/terreno" style="shape=partialRectangle;html=1;whiteSpace=wrap;connectable=0;fillColor=none;top=0;left=0;bottom=0;right=0;align=left;spacingLeft=6;overflow=hidden;fontSize=17;labelBackgroundColor=none;fontStyle=0;verticalAlign=middle;" vertex="1" parent="QpCjkG6h7ZB04saemi_2-87">
          <mxGeometry x="93" width="257" height="25" as="geometry">
            <mxRectangle width="257" height="25" as="alternateBounds" />
          </mxGeometry>
        </mxCell>
        <mxCell id="QpCjkG6h7ZB04saemi_2-90" value="" style="shape=tableRow;horizontal=0;startSize=0;swimlaneHead=0;swimlaneBody=0;top=0;left=0;bottom=0;right=0;collapsible=0;dropTarget=0;fillColor=none;points=[[0,0.5],[1,0.5]];portConstraint=eastwest;fontSize=16;labelBackgroundColor=none;" vertex="1" parent="QpCjkG6h7ZB04saemi_2-37">
          <mxGeometry y="265" width="350" height="25" as="geometry" />
        </mxCell>
        <mxCell id="QpCjkG6h7ZB04saemi_2-91" value="PUT" style="shape=partialRectangle;html=1;whiteSpace=wrap;connectable=0;fillColor=none;top=0;left=0;bottom=0;right=0;overflow=hidden;fontSize=16;labelBackgroundColor=none;" vertex="1" parent="QpCjkG6h7ZB04saemi_2-90">
          <mxGeometry width="93" height="25" as="geometry">
            <mxRectangle width="93" height="25" as="alternateBounds" />
          </mxGeometry>
        </mxCell>
        <mxCell id="QpCjkG6h7ZB04saemi_2-92" value="/terreno/{idTerreno}/arrendar" style="shape=partialRectangle;html=1;whiteSpace=wrap;connectable=0;fillColor=none;top=0;left=0;bottom=0;right=0;align=left;spacingLeft=6;overflow=hidden;fontSize=17;labelBackgroundColor=none;fontStyle=0;verticalAlign=middle;" vertex="1" parent="QpCjkG6h7ZB04saemi_2-90">
          <mxGeometry x="93" width="257" height="25" as="geometry">
            <mxRectangle width="257" height="25" as="alternateBounds" />
          </mxGeometry>
        </mxCell>
        <mxCell id="QpCjkG6h7ZB04saemi_2-93" value="" style="shape=tableRow;horizontal=0;startSize=0;swimlaneHead=0;swimlaneBody=0;top=0;left=0;bottom=0;right=0;collapsible=0;dropTarget=0;fillColor=none;points=[[0,0.5],[1,0.5]];portConstraint=eastwest;fontSize=16;labelBackgroundColor=none;" vertex="1" parent="QpCjkG6h7ZB04saemi_2-37">
          <mxGeometry y="290" width="350" height="25" as="geometry" />
        </mxCell>
        <mxCell id="QpCjkG6h7ZB04saemi_2-94" value="GET" style="shape=partialRectangle;html=1;whiteSpace=wrap;connectable=0;fillColor=none;top=0;left=0;bottom=0;right=0;overflow=hidden;fontSize=16;labelBackgroundColor=none;" vertex="1" parent="QpCjkG6h7ZB04saemi_2-93">
          <mxGeometry width="93" height="25" as="geometry">
            <mxRectangle width="93" height="25" as="alternateBounds" />
          </mxGeometry>
        </mxCell>
        <mxCell id="QpCjkG6h7ZB04saemi_2-95" value="/feed-usuario/disponiveis/{id}" style="shape=partialRectangle;html=1;whiteSpace=wrap;connectable=0;fillColor=none;top=0;left=0;bottom=0;right=0;align=left;spacingLeft=6;overflow=hidden;fontSize=17;labelBackgroundColor=none;fontStyle=0;verticalAlign=middle;" vertex="1" parent="QpCjkG6h7ZB04saemi_2-93">
          <mxGeometry x="93" width="257" height="25" as="geometry">
            <mxRectangle width="257" height="25" as="alternateBounds" />
          </mxGeometry>
        </mxCell>
        <mxCell id="QpCjkG6h7ZB04saemi_2-96" value="" style="shape=tableRow;horizontal=0;startSize=0;swimlaneHead=0;swimlaneBody=0;top=0;left=0;bottom=0;right=0;collapsible=0;dropTarget=0;fillColor=none;points=[[0,0.5],[1,0.5]];portConstraint=eastwest;fontSize=16;labelBackgroundColor=none;" vertex="1" parent="QpCjkG6h7ZB04saemi_2-37">
          <mxGeometry y="315" width="350" height="25" as="geometry" />
        </mxCell>
        <mxCell id="QpCjkG6h7ZB04saemi_2-97" value="GET" style="shape=partialRectangle;html=1;whiteSpace=wrap;connectable=0;fillColor=none;top=0;left=0;bottom=0;right=0;overflow=hidden;fontSize=16;labelBackgroundColor=none;" vertex="1" parent="QpCjkG6h7ZB04saemi_2-96">
          <mxGeometry width="93" height="25" as="geometry">
            <mxRectangle width="93" height="25" as="alternateBounds" />
          </mxGeometry>
        </mxCell>
        <mxCell id="QpCjkG6h7ZB04saemi_2-98" value="/feed-usuario/todosterrenos/{id}" style="shape=partialRectangle;html=1;whiteSpace=wrap;connectable=0;fillColor=none;top=0;left=0;bottom=0;right=0;align=left;spacingLeft=6;overflow=hidden;fontSize=17;labelBackgroundColor=none;fontStyle=0;verticalAlign=middle;" vertex="1" parent="QpCjkG6h7ZB04saemi_2-96">
          <mxGeometry x="93" width="257" height="25" as="geometry">
            <mxRectangle width="257" height="25" as="alternateBounds" />
          </mxGeometry>
        </mxCell>
        <mxCell id="QpCjkG6h7ZB04saemi_2-99" value="" style="shape=tableRow;horizontal=0;startSize=0;swimlaneHead=0;swimlaneBody=0;top=0;left=0;bottom=0;right=0;collapsible=0;dropTarget=0;fillColor=none;points=[[0,0.5],[1,0.5]];portConstraint=eastwest;fontSize=16;labelBackgroundColor=none;" vertex="1" parent="QpCjkG6h7ZB04saemi_2-37">
          <mxGeometry y="340" width="350" height="25" as="geometry" />
        </mxCell>
        <mxCell id="QpCjkG6h7ZB04saemi_2-100" value="GET" style="shape=partialRectangle;html=1;whiteSpace=wrap;connectable=0;fillColor=none;top=0;left=0;bottom=0;right=0;overflow=hidden;fontSize=16;labelBackgroundColor=none;" vertex="1" parent="QpCjkG6h7ZB04saemi_2-99">
          <mxGeometry width="93" height="25" as="geometry">
            <mxRectangle width="93" height="25" as="alternateBounds" />
          </mxGeometry>
        </mxCell>
        <mxCell id="QpCjkG6h7ZB04saemi_2-101" value="/feed-usuario/alugados/{id}" style="shape=partialRectangle;html=1;whiteSpace=wrap;connectable=0;fillColor=none;top=0;left=0;bottom=0;right=0;align=left;spacingLeft=6;overflow=hidden;fontSize=17;labelBackgroundColor=none;fontStyle=0;verticalAlign=middle;" vertex="1" parent="QpCjkG6h7ZB04saemi_2-99">
          <mxGeometry x="93" width="257" height="25" as="geometry">
            <mxRectangle width="257" height="25" as="alternateBounds" />
          </mxGeometry>
        </mxCell>
        <mxCell id="QpCjkG6h7ZB04saemi_2-102" value="" style="shape=tableRow;horizontal=0;startSize=0;swimlaneHead=0;swimlaneBody=0;top=0;left=0;bottom=0;right=0;collapsible=0;dropTarget=0;fillColor=none;points=[[0,0.5],[1,0.5]];portConstraint=eastwest;fontSize=16;labelBackgroundColor=none;" vertex="1" parent="QpCjkG6h7ZB04saemi_2-37">
          <mxGeometry y="365" width="350" height="20" as="geometry" />
        </mxCell>
        <mxCell id="QpCjkG6h7ZB04saemi_2-103" value="GET" style="shape=partialRectangle;html=1;whiteSpace=wrap;connectable=0;fillColor=none;top=0;left=0;bottom=0;right=0;overflow=hidden;fontSize=16;labelBackgroundColor=none;" vertex="1" parent="QpCjkG6h7ZB04saemi_2-102">
          <mxGeometry width="93" height="20" as="geometry">
            <mxRectangle width="93" height="20" as="alternateBounds" />
          </mxGeometry>
        </mxCell>
        <mxCell id="QpCjkG6h7ZB04saemi_2-104" value="/feed-usuario/arrendados/{id}" style="shape=partialRectangle;html=1;whiteSpace=wrap;connectable=0;fillColor=none;top=0;left=0;bottom=0;right=0;align=left;spacingLeft=6;overflow=hidden;fontSize=17;labelBackgroundColor=none;fontStyle=0;verticalAlign=middle;" vertex="1" parent="QpCjkG6h7ZB04saemi_2-102">
          <mxGeometry x="93" width="257" height="20" as="geometry">
            <mxRectangle width="257" height="20" as="alternateBounds" />
          </mxGeometry>
        </mxCell>
        <mxCell id="QpCjkG6h7ZB04saemi_2-105" value="" style="shape=tableRow;horizontal=0;startSize=0;swimlaneHead=0;swimlaneBody=0;top=0;left=0;bottom=0;right=0;collapsible=0;dropTarget=0;fillColor=none;points=[[0,0.5],[1,0.5]];portConstraint=eastwest;fontSize=16;labelBackgroundColor=none;" vertex="1" parent="QpCjkG6h7ZB04saemi_2-37">
          <mxGeometry y="385" width="350" height="20" as="geometry" />
        </mxCell>
        <mxCell id="QpCjkG6h7ZB04saemi_2-106" value="GET" style="shape=partialRectangle;html=1;whiteSpace=wrap;connectable=0;fillColor=none;top=0;left=0;bottom=0;right=0;overflow=hidden;fontSize=16;labelBackgroundColor=none;" vertex="1" parent="QpCjkG6h7ZB04saemi_2-105">
          <mxGeometry width="93" height="20" as="geometry">
            <mxRectangle width="93" height="20" as="alternateBounds" />
          </mxGeometry>
        </mxCell>
        <mxCell id="QpCjkG6h7ZB04saemi_2-107" value="/feed-usuario/disponiveis" style="shape=partialRectangle;html=1;whiteSpace=wrap;connectable=0;fillColor=none;top=0;left=0;bottom=0;right=0;align=left;spacingLeft=6;overflow=hidden;fontSize=17;labelBackgroundColor=none;fontStyle=0;verticalAlign=middle;" vertex="1" parent="QpCjkG6h7ZB04saemi_2-105">
          <mxGeometry x="93" width="257" height="20" as="geometry">
            <mxRectangle width="257" height="20" as="alternateBounds" />
          </mxGeometry>
        </mxCell>
        <mxCell id="QpCjkG6h7ZB04saemi_2-108" value="" style="shape=tableRow;horizontal=0;startSize=0;swimlaneHead=0;swimlaneBody=0;top=0;left=0;bottom=0;right=0;collapsible=0;dropTarget=0;fillColor=none;points=[[0,0.5],[1,0.5]];portConstraint=eastwest;fontSize=16;labelBackgroundColor=none;" vertex="1" parent="QpCjkG6h7ZB04saemi_2-37">
          <mxGeometry y="405" width="350" height="20" as="geometry" />
        </mxCell>
        <mxCell id="QpCjkG6h7ZB04saemi_2-109" value="GET" style="shape=partialRectangle;html=1;whiteSpace=wrap;connectable=0;fillColor=none;top=0;left=0;bottom=0;right=0;overflow=hidden;fontSize=16;labelBackgroundColor=none;" vertex="1" parent="QpCjkG6h7ZB04saemi_2-108">
          <mxGeometry width="93" height="20" as="geometry">
            <mxRectangle width="93" height="20" as="alternateBounds" />
          </mxGeometry>
        </mxCell>
        <mxCell id="QpCjkG6h7ZB04saemi_2-110" value="/feed-usuario/todosterrenos" style="shape=partialRectangle;html=1;whiteSpace=wrap;connectable=0;fillColor=none;top=0;left=0;bottom=0;right=0;align=left;spacingLeft=6;overflow=hidden;fontSize=17;labelBackgroundColor=none;fontStyle=0;verticalAlign=middle;" vertex="1" parent="QpCjkG6h7ZB04saemi_2-108">
          <mxGeometry x="93" width="257" height="20" as="geometry">
            <mxRectangle width="257" height="20" as="alternateBounds" />
          </mxGeometry>
        </mxCell>
        <mxCell id="QpCjkG6h7ZB04saemi_2-111" value="" style="shape=tableRow;horizontal=0;startSize=0;swimlaneHead=0;swimlaneBody=0;top=0;left=0;bottom=0;right=0;collapsible=0;dropTarget=0;fillColor=none;points=[[0,0.5],[1,0.5]];portConstraint=eastwest;fontSize=16;labelBackgroundColor=none;" vertex="1" parent="QpCjkG6h7ZB04saemi_2-37">
          <mxGeometry y="425" width="350" height="20" as="geometry" />
        </mxCell>
        <mxCell id="QpCjkG6h7ZB04saemi_2-112" value="GET" style="shape=partialRectangle;html=1;whiteSpace=wrap;connectable=0;fillColor=none;top=0;left=0;bottom=0;right=0;overflow=hidden;fontSize=16;labelBackgroundColor=none;" vertex="1" parent="QpCjkG6h7ZB04saemi_2-111">
          <mxGeometry width="93" height="20" as="geometry">
            <mxRectangle width="93" height="20" as="alternateBounds" />
          </mxGeometry>
        </mxCell>
        <mxCell id="QpCjkG6h7ZB04saemi_2-113" value="/feed-usuario/alugados" style="shape=partialRectangle;html=1;whiteSpace=wrap;connectable=0;fillColor=none;top=0;left=0;bottom=0;right=0;align=left;spacingLeft=6;overflow=hidden;fontSize=17;labelBackgroundColor=none;fontStyle=0;verticalAlign=middle;" vertex="1" parent="QpCjkG6h7ZB04saemi_2-111">
          <mxGeometry x="93" width="257" height="20" as="geometry">
            <mxRectangle width="257" height="20" as="alternateBounds" />
          </mxGeometry>
        </mxCell>
        <mxCell id="QpCjkG6h7ZB04saemi_2-114" value="" style="shape=tableRow;horizontal=0;startSize=0;swimlaneHead=0;swimlaneBody=0;top=0;left=0;bottom=0;right=0;collapsible=0;dropTarget=0;fillColor=none;points=[[0,0.5],[1,0.5]];portConstraint=eastwest;fontSize=16;labelBackgroundColor=none;" vertex="1" parent="QpCjkG6h7ZB04saemi_2-37">
          <mxGeometry y="445" width="350" height="20" as="geometry" />
        </mxCell>
        <mxCell id="QpCjkG6h7ZB04saemi_2-115" value="GET" style="shape=partialRectangle;html=1;whiteSpace=wrap;connectable=0;fillColor=none;top=0;left=0;bottom=0;right=0;overflow=hidden;fontSize=16;labelBackgroundColor=none;" vertex="1" parent="QpCjkG6h7ZB04saemi_2-114">
          <mxGeometry width="93" height="20" as="geometry">
            <mxRectangle width="93" height="20" as="alternateBounds" />
          </mxGeometry>
        </mxCell>
        <mxCell id="QpCjkG6h7ZB04saemi_2-116" value="/feed-usuario/arrendadosgados" style="shape=partialRectangle;html=1;whiteSpace=wrap;connectable=0;fillColor=none;top=0;left=0;bottom=0;right=0;align=left;spacingLeft=6;overflow=hidden;fontSize=17;labelBackgroundColor=none;fontStyle=0;verticalAlign=middle;" vertex="1" parent="QpCjkG6h7ZB04saemi_2-114">
          <mxGeometry x="93" width="257" height="20" as="geometry">
            <mxRectangle width="257" height="20" as="alternateBounds" />
          </mxGeometry>
        </mxCell>
        <mxCell id="QpCjkG6h7ZB04saemi_2-117" value="" style="shape=tableRow;horizontal=0;startSize=0;swimlaneHead=0;swimlaneBody=0;top=0;left=0;bottom=0;right=0;collapsible=0;dropTarget=0;fillColor=none;points=[[0,0.5],[1,0.5]];portConstraint=eastwest;fontSize=16;labelBackgroundColor=none;" vertex="1" parent="QpCjkG6h7ZB04saemi_2-37">
          <mxGeometry y="465" width="350" height="20" as="geometry" />
        </mxCell>
        <mxCell id="QpCjkG6h7ZB04saemi_2-118" value="POST" style="shape=partialRectangle;html=1;whiteSpace=wrap;connectable=0;fillColor=none;top=0;left=0;bottom=0;right=0;overflow=hidden;fontSize=16;labelBackgroundColor=none;" vertex="1" parent="QpCjkG6h7ZB04saemi_2-117">
          <mxGeometry width="93" height="20" as="geometry">
            <mxRectangle width="93" height="20" as="alternateBounds" />
          </mxGeometry>
        </mxCell>
        <mxCell id="QpCjkG6h7ZB04saemi_2-119" value="/auth/login" style="shape=partialRectangle;html=1;whiteSpace=wrap;connectable=0;fillColor=none;top=0;left=0;bottom=0;right=0;align=left;spacingLeft=6;overflow=hidden;fontSize=17;labelBackgroundColor=none;fontStyle=0;verticalAlign=middle;" vertex="1" parent="QpCjkG6h7ZB04saemi_2-117">
          <mxGeometry x="93" width="257" height="20" as="geometry">
            <mxRectangle width="257" height="20" as="alternateBounds" />
          </mxGeometry>
        </mxCell>
        <mxCell id="QpCjkG6h7ZB04saemi_2-47" value="ADMIN" style="shape=table;startSize=30;container=1;collapsible=0;childLayout=tableLayout;fixedRows=1;rowLines=0;fontStyle=0;fontSize=16;labelBackgroundColor=none;fillColor=#dae8fc;strokeColor=#6c8ebf;" vertex="1" parent="1">
          <mxGeometry x="550" y="320" width="260" height="160" as="geometry" />
        </mxCell>
        <mxCell id="QpCjkG6h7ZB04saemi_2-48" value="" style="shape=tableRow;horizontal=0;startSize=0;swimlaneHead=0;swimlaneBody=0;top=0;left=0;bottom=0;right=0;collapsible=0;dropTarget=0;fillColor=none;points=[[0,0.5],[1,0.5]];portConstraint=eastwest;fontSize=16;labelBackgroundColor=none;" vertex="1" parent="QpCjkG6h7ZB04saemi_2-47">
          <mxGeometry y="30" width="260" height="30" as="geometry" />
        </mxCell>
        <mxCell id="QpCjkG6h7ZB04saemi_2-49" value="POST&amp;nbsp;" style="shape=partialRectangle;html=1;whiteSpace=wrap;connectable=0;fillColor=none;top=0;left=0;bottom=0;right=0;overflow=hidden;pointerEvents=1;fontSize=16;labelBackgroundColor=none;" vertex="1" parent="QpCjkG6h7ZB04saemi_2-48">
          <mxGeometry width="58" height="30" as="geometry">
            <mxRectangle width="58" height="30" as="alternateBounds" />
          </mxGeometry>
        </mxCell>
        <mxCell id="QpCjkG6h7ZB04saemi_2-50" value="/auth/criaradmin" style="shape=partialRectangle;html=1;whiteSpace=wrap;connectable=0;fillColor=none;top=0;left=0;bottom=0;right=0;align=left;spacingLeft=6;overflow=hidden;fontSize=16;labelBackgroundColor=none;" vertex="1" parent="QpCjkG6h7ZB04saemi_2-48">
          <mxGeometry x="58" width="202" height="30" as="geometry">
            <mxRectangle width="202" height="30" as="alternateBounds" />
          </mxGeometry>
        </mxCell>
        <mxCell id="QpCjkG6h7ZB04saemi_2-51" value="" style="shape=tableRow;horizontal=0;startSize=0;swimlaneHead=0;swimlaneBody=0;top=0;left=0;bottom=0;right=0;collapsible=0;dropTarget=0;fillColor=none;points=[[0,0.5],[1,0.5]];portConstraint=eastwest;fontSize=16;labelBackgroundColor=none;" vertex="1" parent="QpCjkG6h7ZB04saemi_2-47">
          <mxGeometry y="60" width="260" height="30" as="geometry" />
        </mxCell>
        <mxCell id="QpCjkG6h7ZB04saemi_2-52" value="GET" style="shape=partialRectangle;html=1;whiteSpace=wrap;connectable=0;fillColor=none;top=0;left=0;bottom=0;right=0;overflow=hidden;fontSize=16;labelBackgroundColor=none;" vertex="1" parent="QpCjkG6h7ZB04saemi_2-51">
          <mxGeometry width="58" height="30" as="geometry">
            <mxRectangle width="58" height="30" as="alternateBounds" />
          </mxGeometry>
        </mxCell>
        <mxCell id="QpCjkG6h7ZB04saemi_2-53" value="/auth/usuario/logado" style="shape=partialRectangle;html=1;whiteSpace=wrap;connectable=0;fillColor=none;top=0;left=0;bottom=0;right=0;align=left;spacingLeft=6;overflow=hidden;fontSize=16;labelBackgroundColor=none;" vertex="1" parent="QpCjkG6h7ZB04saemi_2-51">
          <mxGeometry x="58" width="202" height="30" as="geometry">
            <mxRectangle width="202" height="30" as="alternateBounds" />
          </mxGeometry>
        </mxCell>
        <mxCell id="QpCjkG6h7ZB04saemi_2-54" value="" style="shape=tableRow;horizontal=0;startSize=0;swimlaneHead=0;swimlaneBody=0;top=0;left=0;bottom=0;right=0;collapsible=0;dropTarget=0;fillColor=none;points=[[0,0.5],[1,0.5]];portConstraint=eastwest;fontSize=16;labelBackgroundColor=none;" vertex="1" parent="QpCjkG6h7ZB04saemi_2-47">
          <mxGeometry y="90" width="260" height="30" as="geometry" />
        </mxCell>
        <mxCell id="QpCjkG6h7ZB04saemi_2-55" value="GET&amp;nbsp;" style="shape=partialRectangle;html=1;whiteSpace=wrap;connectable=0;fillColor=none;top=0;left=0;bottom=0;right=0;overflow=hidden;fontSize=16;labelBackgroundColor=none;" vertex="1" parent="QpCjkG6h7ZB04saemi_2-54">
          <mxGeometry width="58" height="30" as="geometry">
            <mxRectangle width="58" height="30" as="alternateBounds" />
          </mxGeometry>
        </mxCell>
        <mxCell id="QpCjkG6h7ZB04saemi_2-56" value="/contrato/{id}" style="shape=partialRectangle;html=1;whiteSpace=wrap;connectable=0;fillColor=none;top=0;left=0;bottom=0;right=0;align=left;spacingLeft=6;overflow=hidden;fontSize=16;labelBackgroundColor=none;" vertex="1" parent="QpCjkG6h7ZB04saemi_2-54">
          <mxGeometry x="58" width="202" height="30" as="geometry">
            <mxRectangle width="202" height="30" as="alternateBounds" />
          </mxGeometry>
        </mxCell>
        <mxCell id="QpCjkG6h7ZB04saemi_2-60" value="" style="shape=tableRow;horizontal=0;startSize=0;swimlaneHead=0;swimlaneBody=0;top=0;left=0;bottom=0;right=0;collapsible=0;dropTarget=0;fillColor=none;points=[[0,0.5],[1,0.5]];portConstraint=eastwest;fontSize=16;labelBackgroundColor=none;" vertex="1" parent="QpCjkG6h7ZB04saemi_2-47">
          <mxGeometry y="120" width="260" height="30" as="geometry" />
        </mxCell>
        <mxCell id="QpCjkG6h7ZB04saemi_2-61" value="GET&amp;nbsp;" style="shape=partialRectangle;html=1;whiteSpace=wrap;connectable=0;fillColor=none;top=0;left=0;bottom=0;right=0;overflow=hidden;pointerEvents=1;fontSize=16;labelBackgroundColor=none;" vertex="1" parent="QpCjkG6h7ZB04saemi_2-60">
          <mxGeometry width="58" height="30" as="geometry">
            <mxRectangle width="58" height="30" as="alternateBounds" />
          </mxGeometry>
        </mxCell>
        <mxCell id="QpCjkG6h7ZB04saemi_2-62" value="/mensalidade/{id}" style="shape=partialRectangle;html=1;whiteSpace=wrap;connectable=0;fillColor=none;top=0;left=0;bottom=0;right=0;align=left;spacingLeft=6;overflow=hidden;fontSize=16;labelBackgroundColor=none;" vertex="1" parent="QpCjkG6h7ZB04saemi_2-60">
          <mxGeometry x="58" width="202" height="30" as="geometry">
            <mxRectangle width="202" height="30" as="alternateBounds" />
          </mxGeometry>
        </mxCell>
        <mxCell id="QpCjkG6h7ZB04saemi_2-65" style="edgeStyle=orthogonalEdgeStyle;rounded=0;orthogonalLoop=1;jettySize=auto;html=1;entryX=0.5;entryY=0;entryDx=0;entryDy=0;entryPerimeter=0;labelBackgroundColor=none;fontColor=default;" edge="1" parent="1" source="QpCjkG6h7ZB04saemi_2-20" target="QpCjkG6h7ZB04saemi_2-47">
          <mxGeometry relative="1" as="geometry" />
        </mxCell>
        <mxCell id="QpCjkG6h7ZB04saemi_2-67" style="edgeStyle=orthogonalEdgeStyle;rounded=0;orthogonalLoop=1;jettySize=auto;html=1;labelBackgroundColor=none;fontColor=default;" edge="1" parent="1" source="QpCjkG6h7ZB04saemi_2-66" target="QpCjkG6h7ZB04saemi_2-1">
          <mxGeometry relative="1" as="geometry" />
        </mxCell>
        <mxCell id="QpCjkG6h7ZB04saemi_2-66" value="&lt;font style=&quot;font-size: 17px;&quot;&gt;PUBLIC&lt;/font&gt;" style="ellipse;whiteSpace=wrap;html=1;labelBackgroundColor=none;fillColor=#b0e3e6;strokeColor=#0e8088;" vertex="1" parent="1">
          <mxGeometry x="339" y="-290" width="120" height="80" as="geometry" />
        </mxCell>
        <mxCell id="QpCjkG6h7ZB04saemi_2-71" style="edgeStyle=orthogonalEdgeStyle;rounded=0;orthogonalLoop=1;jettySize=auto;html=1;entryX=0.48;entryY=0.021;entryDx=0;entryDy=0;entryPerimeter=0;labelBackgroundColor=none;fontColor=default;" edge="1" parent="1" source="QpCjkG6h7ZB04saemi_2-1" target="QpCjkG6h7ZB04saemi_2-19">
          <mxGeometry relative="1" as="geometry" />
        </mxCell>
        <mxCell id="QpCjkG6h7ZB04saemi_2-125" style="edgeStyle=orthogonalEdgeStyle;rounded=0;orthogonalLoop=1;jettySize=auto;html=1;entryX=0.386;entryY=-0.007;entryDx=0;entryDy=0;entryPerimeter=0;labelBackgroundColor=none;fontColor=default;" edge="1" parent="1" source="QpCjkG6h7ZB04saemi_2-19" target="QpCjkG6h7ZB04saemi_2-37">
          <mxGeometry relative="1" as="geometry" />
        </mxCell>
        <mxCell id="QpCjkG6h7ZB04saemi_2-132" value="&lt;font face=&quot;Verdana&quot; style=&quot;font-size: 13px;&quot;&gt;&amp;lt;&amp;lt; EXTENDS &amp;gt;&amp;gt;&lt;/font&gt;" style="text;strokeColor=none;fillColor=none;html=1;fontSize=24;fontStyle=1;verticalAlign=middle;align=center;" vertex="1" parent="1">
          <mxGeometry x="414" y="120" width="100" height="40" as="geometry" />
        </mxCell>
        <mxCell id="QpCjkG6h7ZB04saemi_2-138" style="edgeStyle=orthogonalEdgeStyle;rounded=0;orthogonalLoop=1;jettySize=auto;html=1;entryX=0.846;entryY=0;entryDx=0;entryDy=0;entryPerimeter=0;" edge="1" parent="1" source="QpCjkG6h7ZB04saemi_2-132" target="QpCjkG6h7ZB04saemi_2-37">
          <mxGeometry relative="1" as="geometry" />
        </mxCell>
      </root>
    </mxGraphModel>
  </diagram>
</mxfile>
